<svg xmlns="http://www.w3.org/2000/svg" viewBox="0 0 64 64">
  <rect width="64" height="64" rx="16" fill="#fbf7ef"/>
  <circle cx="32" cy="34" r="20" fill="#ec6a4d"/>
  <path d="M21 25c-1-3 1-6 4-6l4 5z" fill="#ec6a4d"/>
  <path d="M43 25c1-3-1-6-4-6l-4 5z" fill="#ec6a4d"/>
  <path d="M24 22l4 4-2 2z" fill="#fbf7ef"/>
  <path d="M40 22l-4 4 2 2z" fill="#fbf7ef"/>
  <circle cx="26" cy="33" r="2.2" fill="#1f1812"/>
  <circle cx="38" cy="33" r="2.2" fill="#1f1812"/>
  <ellipse cx="32" cy="40" rx="3.2" ry="2.2" fill="#1f1812"/>
  <path d="M32 42v3M28 44c0 2 4 2 4 0M36 44c0 2-4 2-4 0" stroke="#1f1812" stroke-width="1.6" fill="none" stroke-linecap="round"/>
</svg>
